<svg width="845" height="279" viewBox="0 0 845 279" fill="none" xmlns="http://www.w3.org/2000/svg">
<path d="M224.231 163.847H323.521C323.017 150.256 318.487 139.181 309.93 130.624C301.373 121.815 289.292 117.411 273.687 117.411C259.593 117.411 248.015 122.067 238.955 131.379C229.894 140.44 224.986 151.262 224.231 163.847ZM328.806 211.037L359.386 221.608C354.1 238.471 344.285 252.314 329.939 263.136C315.593 273.707 298.226 278.992 277.84 278.992C252.42 278.992 230.775 270.309 212.905 252.943C195.288 235.325 186.479 211.667 186.479 181.968C186.479 154.283 195.036 131.379 212.15 113.258C229.265 95.1367 249.651 86.076 273.31 86.076C300.743 86.076 322.136 94.7592 337.489 112.125C352.842 129.24 360.518 152.269 360.518 181.213C360.518 185.743 360.267 189.518 359.763 192.539H223.099C223.35 208.646 228.636 221.86 238.955 232.179C249.526 242.498 262.487 247.657 277.84 247.657C303.764 247.657 320.752 235.451 328.806 211.037Z" fill="black"/>
<path d="M409.216 168.377V273.329H373.729V91.7389H408.461V117.788C420.542 96.8985 439.167 86.4536 464.335 86.4536C485.225 86.4536 501.207 93.1232 512.281 106.462C523.607 119.802 529.27 137.042 529.27 158.184V273.329H493.782V164.224C493.782 133.77 479.688 118.543 451.499 118.543C438.16 118.543 427.715 123.325 420.165 132.889C412.866 142.202 409.216 154.031 409.216 168.377Z" fill="black"/>
<path d="M574.771 181.968C574.771 201.096 579.427 216.7 588.739 228.781C598.303 240.862 611.391 246.902 628.002 246.902C643.858 246.902 656.568 240.736 666.132 228.404C675.696 216.071 680.478 200.341 680.478 181.213C680.478 162.336 675.822 147.11 666.509 135.532C657.197 123.955 644.487 118.166 628.379 118.166C612.271 118.166 599.31 124.08 589.494 135.91C579.678 147.739 574.771 163.091 574.771 181.968ZM680.855 248.79V245.77C676.073 255.082 668.775 262.884 658.959 269.176C649.395 275.217 637.943 278.237 624.604 278.237C598.681 278.237 577.791 269.176 561.935 251.055C546.33 232.682 538.528 209.653 538.528 181.968C538.528 155.541 546.582 133.141 562.69 114.768C578.797 96.1434 599.436 86.8311 624.604 86.8311C639.453 86.8311 651.534 89.8513 660.847 95.8917C670.159 101.68 676.577 108.853 680.1 117.411V0H715.21V239.729C715.21 252.062 715.84 263.262 717.098 273.329H682.743C681.485 266.282 680.855 258.102 680.855 248.79Z" fill="black"/>
<path d="M844.283 89.8513V127.604C838.998 126.849 833.838 126.471 828.805 126.471C795.582 126.471 778.971 145.096 778.971 182.345V273.329H743.484V91.7389H778.216V123.451C789.29 100.296 807.411 88.7187 832.58 88.7187C836.607 88.7187 840.508 89.0963 844.283 89.8513Z" fill="black"/>
<path fill-rule="evenodd" clip-rule="evenodd" d="M109.211 215.602C108.218 214.409 108.005 212.75 108.664 211.345L123.263 180.225L200.734 273.329H172.247C162.742 273.329 153.729 269.104 147.649 261.797L109.211 215.602Z" fill="black"/>
<path fill-rule="evenodd" clip-rule="evenodd" d="M168.107 89.3292C158.602 89.3292 149.588 93.5548 143.509 100.861L100.367 152.709L78.6226 178.841L0 273.329H28.4864C37.9916 273.329 47.0049 269.104 53.0846 261.797L196.593 89.3292H168.107Z" fill="black"/>
<path fill-rule="evenodd" clip-rule="evenodd" d="M100.367 152.709L78.6226 178.841L4.14062 89.3292H32.6269C42.1321 89.3292 51.1454 93.5548 57.2251 100.861L100.367 152.709Z" fill="black"/>
</svg>
