<svg width="1129" height="326" viewBox="0 0 1129 326" fill="none" xmlns="http://www.w3.org/2000/svg">
<g clip-path="url(#clip0_61_26)">
<path d="M258.193 293.834C249.109 305.7 238.42 316.335 226.448 325.259L194.327 293.138L128.802 227.614L63.7058 292.657L31.6389 324.724C19.666 315.693 8.97701 305.004 0 293.031L32.0134 261.018L52.9526 240.079C94.7883 198.243 162.613 198.243 204.449 240.079L258.204 293.834H258.193Z" fill="white"/>
<path d="M258.193 111.105C249.109 99.2391 238.42 88.6037 226.448 79.6802L194.327 111.801L128.802 177.325L63.7058 112.282L31.6389 80.2152C19.666 89.2457 8.97701 99.9346 0 111.908L32.0134 143.921L52.9526 164.86C94.7883 206.696 162.613 206.696 204.449 164.86L258.204 111.105H258.193Z" fill="white"/>
<path d="M317.331 99.6032C334.204 89.6311 353.528 84.6558 375.302 84.6558C397.075 84.6558 415.789 89.1068 432.352 97.9982C448.915 106.89 461.947 119.772 471.459 136.645C480.971 153.519 486.032 173.302 486.642 195.996C486.642 199.367 486.332 204.738 485.722 212.099H303.528V215.32C304.138 238.324 311.2 256.728 324.692 270.53C338.184 284.333 355.828 291.234 377.602 291.234C394.475 291.234 408.813 287.018 420.615 278.576C432.427 270.145 440.323 258.408 444.304 243.385H482.491C477.89 267.31 466.388 286.858 447.984 302.041C429.581 317.224 407.037 324.82 380.352 324.82C357.037 324.82 336.644 319.834 319.16 309.873C301.677 299.901 288.11 285.799 278.448 267.545C268.786 249.291 263.961 228.363 263.961 204.749C263.961 181.135 268.637 159.81 277.988 141.717C287.34 123.624 300.457 109.586 317.32 99.6246L317.331 99.6032ZM425.215 134.345C412.183 123.303 395.695 117.782 375.762 117.782C357.968 117.782 342.325 123.613 328.833 135.265C315.341 146.917 307.669 162.1 305.829 180.814H447.535C445.695 160.88 438.258 145.387 425.215 134.345Z" fill="white"/>
<path d="M722.194 191.396V322.06H684.467V193.696C684.467 169.461 679.021 150.983 668.14 138.261C657.248 125.528 641.53 119.173 620.986 119.173C598.902 119.173 581.569 126.845 568.997 142.177C556.425 157.51 550.133 178.374 550.133 204.749V322.07H512.406V87.4163H545.072L550.133 119.162C567.927 96.1579 593.692 84.6558 627.428 84.6558C655.953 84.6558 678.882 93.2476 696.205 110.421C713.538 127.593 722.194 154.589 722.194 191.396Z" fill="white"/>
<path d="M975.702 322.06H943.036L937.975 284.333C918.341 311.328 891.507 324.82 857.46 324.82C835.686 324.82 816.288 320.07 799.265 310.558C782.242 301.046 768.899 287.243 759.237 269.15C749.576 251.057 744.75 229.583 744.75 204.738C744.75 179.893 749.576 160.259 759.237 142.166C768.899 124.073 782.317 109.96 799.489 99.8385C816.662 89.7166 835.986 84.6557 857.46 84.6557C876.474 84.6557 892.737 88.101 906.229 95.0022C919.721 101.904 930.303 111.33 937.975 123.292V0H975.702V322.06ZM928.773 250.051C935.215 237.019 938.435 222.221 938.435 205.658C938.435 189.095 935.215 173.688 928.773 160.345C922.332 147.003 913.205 136.656 901.404 129.295C889.591 121.933 876.174 118.253 861.152 118.253C837.837 118.253 819.059 126.299 804.796 142.402C790.534 158.505 783.397 179.283 783.397 204.738C783.397 230.192 790.534 250.971 804.796 267.074C819.059 283.177 837.848 291.223 861.152 291.223C876.185 291.223 889.602 287.617 901.404 280.417C913.216 273.205 922.343 263.083 928.773 250.051Z" fill="white"/>
<path d="M1128.91 124.223H1110.05C1087.65 124.223 1071.63 131.734 1061.97 146.767C1052.31 161.8 1047.48 180.353 1047.48 202.437V322.06H1009.76V87.416H1042.42L1047.48 122.843C1054.24 112.111 1062.98 103.519 1073.71 97.0778C1084.44 90.6366 1099.32 87.416 1118.34 87.416H1128.92V124.223H1128.91Z" fill="white"/>
</g>
<defs>
<clipPath id="clip0_61_26">
<rect width="1128.91" height="325.27" fill="white"/>
</clipPath>
</defs>
</svg>
