<?xml version="1.0" encoding="UTF-8"?>
<svg xmlns="http://www.w3.org/2000/svg" xmlns:xlink="http://www.w3.org/1999/xlink" width="160px" height="160px" viewBox="0 0 160 160" version="1.1">
<g id="surface1">
<path style=" stroke:none;fill-rule:nonzero;fill:rgb(9.411765%,88.627452%,60.000002%);fill-opacity:1;" d="M 154.667969 61.378906 L 154.667969 13.453125 C 154.667969 8.308594 150.496094 4.210938 145.429688 4.210938 L 97.527344 4.210938 C 90 4.210938 82.550781 5.703125 75.621094 8.535156 C 68.695312 11.441406 62.359375 15.613281 57.070312 20.980469 L 56.699219 21.355469 C 49.695312 28.433594 44.703125 37.230469 42.171875 46.917969 C 46.714844 45.726562 51.410156 45.132812 56.101562 45.054688 C 68.617188 44.90625 80.910156 48.933594 90.894531 56.460938 C 99.910156 63.167969 106.765625 72.410156 110.488281 83.070312 C 114.363281 93.878906 114.808594 105.65625 111.90625 116.761719 C 121.515625 114.226562 130.382812 109.234375 137.460938 102.226562 L 137.832031 101.851562 C 143.121094 96.5625 147.367188 90.226562 150.273438 83.292969 C 153.179688 76.363281 154.59375 68.910156 154.59375 61.378906 Z M 154.667969 61.378906 "/>
<path style=" stroke:none;fill-rule:nonzero;fill:rgb(4.705882%,54.901963%,36.862746%);fill-opacity:1;" d="M 40.742188 60.574219 C 40.816406 45.871094 46.679688 31.761719 56.996094 21.21875 L 17.136719 61.09375 C 16.988281 61.242188 16.839844 61.316406 16.691406 61.464844 C 6.96875 71.117188 1.105469 84.039062 0.140625 97.699219 C -0.75 110.472656 2.589844 123.09375 9.714844 133.640625 C 10.394531 134.644531 12.238281 134.976562 13.277344 134.011719 L 37.699219 109.65625 C 45.34375 102.007812 47.71875 90.644531 44.082031 80.472656 C 41.78125 74.160156 40.667969 67.402344 40.742188 60.574219 Z M 40.742188 60.574219 "/>
<path style=" stroke:none;fill-rule:nonzero;fill:rgb(4.705882%,54.901963%,36.862746%);fill-opacity:1;" d="M 137.609375 101.84375 C 129.964844 109.34375 120.390625 114.539062 110 116.84375 C 99.53125 119.144531 88.695312 118.476562 78.601562 114.910156 C 78.601562 114.910156 78.527344 114.910156 78.453125 114.910156 C 68.285156 111.273438 56.929688 113.648438 49.285156 121.222656 L 24.867188 145.578125 C 23.828125 146.617188 23.976562 148.324219 25.238281 149.144531 C 35.777344 156.195312 48.394531 159.613281 61.160156 158.722656 C 74.816406 157.757812 87.65625 151.890625 97.378906 142.164062 L 97.75 141.792969 L 137.609375 101.917969 Z M 137.609375 101.84375 "/>
</g>
</svg>
